<svg xmlns="http://www.w3.org/2000/svg" xmlns:xlink="http://www.w3.org/1999/xlink" width="1000" height="1000.259" viewBox="0 0 1000 1000.259"><defs><linearGradient id="p"><stop offset="0" stop-color="#dfa900"/><stop offset=".303" stop-color="#e4af00"/><stop offset="1" stop-color="#f0cd24"/></linearGradient><linearGradient id="o"><stop offset="0" stop-color="#d29c00"/><stop offset="1" stop-color="#dfa900"/></linearGradient><linearGradient id="n"><stop offset="0" stop-color="#b37f00"/><stop offset=".28" stop-color="#c18d00"/><stop offset="1" stop-color="#c79300"/></linearGradient><linearGradient id="m"><stop offset="0" stop-color="#dfa900"/><stop offset=".303" stop-color="#e4af00"/><stop offset="1" stop-color="#c79200"/></linearGradient><linearGradient id="l"><stop offset="0" stop-color="#ecbe00"/><stop offset=".389" stop-color="#f1cc20"/><stop offset="1" stop-color="#f0cd24"/></linearGradient><linearGradient id="j"><stop offset="0" stop-color="#e8b600"/><stop offset="1" stop-color="#d39d00"/></linearGradient><linearGradient id="k"><stop offset="0" stop-color="#e3ae00"/><stop offset="1" stop-color="#ce9900"/></linearGradient><linearGradient id="a" x1="187" x2="138" y1="220" y2="102" gradientUnits="userSpaceOnUse"><stop offset="0%" stop-color="#eabb00"/><stop offset="30%" stop-color="#f0cd24"/></linearGradient><linearGradient id="b" x1="80" x2="80" y1="140" y2="60" gradientUnits="userSpaceOnUse"><stop offset="0%" stop-color="#b48100"/><stop offset="30%" stop-opacity=".06"/><stop offset="100%" stop-opacity=".03"/></linearGradient><linearGradient id="c" x1="164" x2="109" y1="161" y2="217" gradientUnits="userSpaceOnUse"><stop offset="0%" stop-opacity=".15"/><stop offset="30%" stop-opacity=".06"/><stop offset="100%" stop-color="#c79200"/></linearGradient><linearGradient id="i" x1="128" x2="128" y1="16" y2="107" gradientUnits="userSpaceOnUse"><stop offset="0%" stop-color="#e9b700"/><stop offset="100%" stop-color="#bc8800"/></linearGradient><linearGradient id="h" x1="72" x2="118" y1="225" y2="149" gradientUnits="userSpaceOnUse"><stop offset="0%" stop-color="#d6a100"/><stop offset="100%" stop-color="#e0a900"/></linearGradient><linearGradient id="g" x1="187" x2="138" y1="220" y2="102" gradientUnits="userSpaceOnUse" xlink:href="#a"><stop offset="0%" stop-color="#eabb00"/><stop offset="30%" stop-color="#f1ca00"/></linearGradient><linearGradient id="f" x1="80" x2="80" y1="140" y2="60" gradientUnits="userSpaceOnUse" xlink:href="#b"><stop offset="0%" stop-opacity=".15"/><stop offset="30%" stop-opacity=".06"/><stop offset="100%" stop-opacity=".03"/></linearGradient><linearGradient id="e" x1="164" x2="109" y1="161" y2="217" gradientUnits="userSpaceOnUse" xlink:href="#c"><stop offset="0%" stop-opacity=".15"/><stop offset="30%" stop-opacity=".06"/><stop offset="100%" stop-opacity=".03"/></linearGradient><linearGradient id="d" x1="139" x2="147" y1="179" y2="100" gradientUnits="userSpaceOnUse"><stop offset="0%" stop-opacity=".15"/><stop offset="30%" stop-opacity=".06"/><stop offset="100%" stop-opacity=".03"/></linearGradient><linearGradient id="q" x1="350.685" x2="343.671" y1="330.451" y2="660.095" gradientTransform="matrix(.2234 0 0 .2234 0 0)" gradientUnits="userSpaceOnUse" xlink:href="#j"/><linearGradient id="r" x1="134.622" x2="135.73" y1="21.815" y2="115.995" gradientUnits="userSpaceOnUse" xlink:href="#k"/><linearGradient id="t" x1="194.302" x2="133.191" y1="223.471" y2="105.166" gradientUnits="userSpaceOnUse" xlink:href="#l"/><linearGradient id="v" x1="162.179" x2="110.47" y1="162.36" y2="214.069" gradientUnits="userSpaceOnUse" xlink:href="#m"/><linearGradient id="u" x1="80.275" x2="80.275" y1="134.823" y2="64.719" gradientUnits="userSpaceOnUse" xlink:href="#n"/><linearGradient id="s" x1="73.682" x2="113.016" y1="224.025" y2="150.343" gradientUnits="userSpaceOnUse" xlink:href="#o"/><linearGradient id="w" x1="128.49" x2="144.159" y1="187.431" y2="105.166" gradientUnits="userSpaceOnUse" xlink:href="#p"/></defs><path fill="#fff" d="M993.54 501.995c0 271.924-220.438 492.362-492.362 492.362-271.924 0-492.362-220.438-492.362-492.362C8.816 230.07 229.254 9.632 501.178 9.632c271.924 0 492.362 220.438 492.362 492.363z"/><path fill-opacity=".1" d="M814.5 591.515a313.32 313.32 0 1 0-626.643 0h89.52a223.8 223.8 0 1 1 447.602 0"/><path fill-opacity=".1" d="M693.647 564.66c0 93.936-76.15 170.087-170.09 170.087-93.936 0-170.088-76.15-170.088-170.088 0-93.94 76.15-170.09 170.088-170.09 93.938 0 170.09 76.15 170.09 170.09z"/><path fill="url(#q)" d="M152.97 112.152c0 22.644-18.357 41-41 41-22.644 0-41-18.356-41-41s18.356-41 41-41c22.643 0 41 18.356 41 41z" transform="scale(4.47602)"/><path fill="url(#r)" d="M211.97 62.152a112 112 0 0 0-193-13l45 78a50 50 0 0 1 47-65" transform="scale(4.47602)"/><path fill="url(#s)" d="M18.97 49.152a112 112 0 0 0 84 174l47-80a50 50 0 0 1-86-16" transform="scale(4.47602)"/><path fill="url(#t)" d="M102.97 223.152a112 112 0 0 0 109-161h-101a50 50 0 0 1 39 81" transform="scale(4.47602)"/><path fill="url(#u)" d="M18.97 49.152l45 78a50 50 0 0 1 2-34l-45-47" transform="scale(4.47602)"/><path fill="url(#v)" d="M102.97 223.152l47-80a50 50 0 0 1-29 17l-20 63" transform="scale(4.47602)"/><path fill="url(#w)" d="M211.97 62.152h-101a50 50 0 0 1 39 19l64-16" transform="scale(4.47602)"/></svg>